# xmcd
#
# Track frame offsets:
#	150
#	16978
#	34268
#	49281
#	65149
#	84820
#	102998
#	116448
#	131304
#	148542
#	163235
#	179873
#	196596
#
# Disc length: 2820 seconds
#
# Revision: 1
# Processed by: cddbd v1.5.2PL0 Copyright (c) Steve Scherf et al.
# Submitted via: audiograbber 1.83.01
#
DISCID=b30b020d
DTITLE=Paul Overstreet - Living By The Book
DYEAR=2001
DGENRE=Country
TTITLE0=Lost And Found
TTITLE1=He Is Risen
TTITLE2=Dig Another Well
TTITLE3=Everybody Needs Your Touch
TTITLE4=Living By The Book
TTITLE5=Steady Working
TTITLE6=Oh Why
TTITLE7=I Will Carry My Cross For You
TTITLE8=God Is Good
TTITLE9=Until We Know
TTITLE10=Heart Of My Heart
TTITLE11=Wise Men Still Seek Him
TTITLE12=I Won't Take Less Than Your Love
EXTD=
EXTT0=
EXTT1=
EXTT2=
EXTT3=
EXTT4=
EXTT5=
EXTT6=
EXTT7=
EXTT8=
EXTT9=
EXTT10=
EXTT11=
EXTT12=
PLAYORDER=
